<svg width="506" height="237" viewBox="0 0 506 237" fill="none" xmlns="http://www.w3.org/2000/svg">
<path d="M185.189 236.855C181.927 236.855 179.072 236.447 176.626 235.632C174.179 234.862 172.276 233.661 170.917 232.03C169.603 230.444 168.946 228.473 168.946 226.117C168.946 224.531 169.353 223.036 170.169 221.631C170.985 220.226 172.163 218.958 173.703 217.825C175.289 216.647 177.26 215.65 179.616 214.834L183.082 219.32C180.998 220 179.48 220.838 178.529 221.835C177.622 222.877 177.169 223.987 177.169 225.165C177.169 226.207 177.509 227.091 178.189 227.816C178.914 228.541 179.865 229.062 181.043 229.379C182.267 229.741 183.626 229.923 185.121 229.923C186.571 229.923 187.817 229.741 188.859 229.379C189.947 229.016 190.785 228.473 191.374 227.748C192.009 227.068 192.326 226.253 192.326 225.301C192.326 224.078 191.895 223.081 191.034 222.311C190.173 221.54 188.452 221.065 185.869 220.883C183.558 220.702 181.497 220.453 179.684 220.136C177.917 219.773 176.354 219.365 174.994 218.912C173.635 218.414 172.48 217.87 171.528 217.281C170.622 216.692 169.874 216.103 169.285 215.514V213.951L176.558 206.135L183.15 208.242L174.587 216.669L177.169 212.184C177.668 212.456 178.144 212.727 178.597 212.999C179.095 213.226 179.707 213.452 180.432 213.679C181.157 213.86 182.108 214.041 183.286 214.223C184.464 214.404 185.96 214.562 187.772 214.698C190.763 214.97 193.209 215.537 195.112 216.398C197.061 217.258 198.488 218.414 199.394 219.864C200.3 221.268 200.753 223.013 200.753 225.097C200.753 227.136 200.187 229.039 199.054 230.806C197.967 232.619 196.268 234.069 193.957 235.156C191.646 236.289 188.724 236.855 185.189 236.855ZM185.189 210.96C182.335 210.96 179.865 210.417 177.781 209.329C175.742 208.196 174.156 206.701 173.023 204.843C171.936 202.94 171.392 200.833 171.392 198.523C171.392 196.212 171.936 194.127 173.023 192.27C174.156 190.367 175.742 188.849 177.781 187.716C179.865 186.583 182.335 186.017 185.189 186.017C188.089 186.017 190.559 186.583 192.598 187.716C194.682 188.849 196.268 190.367 197.355 192.27C198.443 194.127 198.986 196.212 198.986 198.523C198.986 200.833 198.443 202.94 197.355 204.843C196.268 206.701 194.682 208.196 192.598 209.329C190.559 210.417 188.089 210.96 185.189 210.96ZM185.189 203.96C186.956 203.96 188.384 203.507 189.471 202.601C190.559 201.694 191.102 200.358 191.102 198.591C191.102 196.823 190.559 195.487 189.471 194.581C188.384 193.629 186.956 193.153 185.189 193.153C183.468 193.153 182.04 193.629 180.907 194.581C179.82 195.487 179.276 196.823 179.276 198.591C179.276 200.358 179.82 201.694 180.907 202.601C182.04 203.507 183.468 203.96 185.189 203.96ZM190.898 193.357L189.403 186.832H203.472V192.27L190.898 193.357ZM220.987 221.903C218.223 221.903 215.844 221.336 213.851 220.204C211.902 219.026 210.407 217.326 209.365 215.106C208.323 212.841 207.802 210.054 207.802 206.746V186.832H216.977V205.795C216.977 208.559 217.543 210.643 218.676 212.048C219.854 213.452 221.644 214.155 224.045 214.155C225.586 214.155 226.945 213.815 228.123 213.135C229.301 212.41 230.23 211.391 230.91 210.077C231.635 208.717 231.997 207.064 231.997 205.115V186.832H241.105V221.087H233.085L232.337 215.514C231.34 217.462 229.868 219.026 227.92 220.204C225.971 221.336 223.66 221.903 220.987 221.903ZM247.576 221.087V186.832H256.751V221.087H247.576ZM252.198 182.143C250.566 182.143 249.207 181.667 248.12 180.716C247.077 179.719 246.556 178.473 246.556 176.977C246.556 175.482 247.077 174.259 248.12 173.307C249.207 172.311 250.566 171.812 252.198 171.812C253.874 171.812 255.233 172.311 256.276 173.307C257.363 174.259 257.907 175.482 257.907 176.977C257.907 178.473 257.363 179.719 256.276 180.716C255.233 181.667 253.874 182.143 252.198 182.143ZM278.528 221.903C275.402 221.903 272.593 221.132 270.101 219.592C267.654 218.051 265.728 215.922 264.324 213.203C262.919 210.485 262.217 207.426 262.217 204.028C262.217 200.539 262.919 197.458 264.324 194.784C265.774 192.066 267.745 189.936 270.237 188.396C272.774 186.81 275.606 186.017 278.732 186.017C281.179 186.017 283.331 186.47 285.189 187.376C287.047 188.282 288.542 189.574 289.675 191.25V172.152H298.85V221.087H290.694L289.675 216.398C288.995 217.349 288.134 218.255 287.092 219.116C286.095 219.977 284.895 220.657 283.49 221.155C282.085 221.654 280.431 221.903 278.528 221.903ZM280.703 213.883C282.516 213.883 284.102 213.475 285.461 212.659C286.866 211.799 287.953 210.62 288.723 209.125C289.494 207.63 289.879 205.908 289.879 203.96C289.879 202.011 289.494 200.29 288.723 198.794C287.953 197.299 286.866 196.144 285.461 195.328C284.102 194.467 282.516 194.037 280.703 194.037C278.982 194.037 277.418 194.467 276.014 195.328C274.609 196.144 273.499 197.299 272.683 198.794C271.913 200.29 271.528 201.989 271.528 203.892C271.528 205.886 271.913 207.63 272.683 209.125C273.499 210.62 274.586 211.799 275.946 212.659C277.35 213.475 278.936 213.883 280.703 213.883ZM321.569 221.903C318.126 221.903 315.067 221.178 312.394 219.728C309.766 218.233 307.704 216.171 306.209 213.543C304.759 210.87 304.034 207.789 304.034 204.3C304.034 200.72 304.759 197.571 306.209 194.852C307.704 192.088 309.766 189.936 312.394 188.396C315.022 186.81 318.08 186.017 321.569 186.017C324.968 186.017 327.935 186.765 330.473 188.26C333.01 189.755 334.981 191.771 336.386 194.309C337.79 196.846 338.493 199.723 338.493 202.94C338.493 203.393 338.493 203.915 338.493 204.504C338.493 205.047 338.447 205.614 338.357 206.203H310.559V200.63H329.249C329.113 198.409 328.32 196.665 326.871 195.396C325.466 194.127 323.699 193.493 321.569 193.493C320.029 193.493 318.601 193.856 317.287 194.581C315.973 195.26 314.931 196.325 314.161 197.775C313.436 199.225 313.074 201.06 313.074 203.28V205.251C313.074 207.109 313.413 208.74 314.093 210.145C314.818 211.504 315.815 212.569 317.083 213.339C318.352 214.064 319.825 214.427 321.501 214.427C323.178 214.427 324.56 214.064 325.647 213.339C326.78 212.614 327.618 211.685 328.162 210.552H337.541C336.907 212.682 335.842 214.608 334.347 216.33C332.852 218.051 331.016 219.411 328.842 220.408C326.667 221.404 324.243 221.903 321.569 221.903Z" fill="#10810E"/>
<path d="M29.036 212.777L55.8406 183.151C63.7838 174.371 59.3634 160.288 47.8277 157.623L32.6634 154.119C20.7503 151.366 16.5534 136.558 25.2509 127.964L40.5808 112.817C49.0319 104.467 63.1576 112.288 60.5661 123.882C57.4928 137.631 76.6358 144.378 82.8629 131.74L101.361 94.1986C108.555 79.5979 89.1534 66.6149 78.4004 78.8341C75.3691 82.2788 74.2279 86.995 75.349 91.4444L105.061 209.362C106.798 216.256 112.997 221.087 120.107 221.087H123.463C132.032 221.087 138.979 214.14 138.979 205.571V178.264V152.853C138.979 137.769 119.633 131.555 110.849 143.817L108.015 147.774" stroke="#10810E" stroke-width="7.16132"/>
<path d="M290.827 131.802H248.004C248.798 135.313 250.598 138.134 253.456 140.155C256.315 142.177 259.914 143.242 264.202 143.242C267.166 143.242 269.76 142.816 272.036 141.911C274.312 141.007 276.429 139.623 278.388 137.708L287.122 147.232C281.776 153.351 273.994 156.437 263.778 156.437C257.373 156.437 251.762 155.214 246.84 152.66C241.917 150.159 238.159 146.7 235.459 142.231C232.812 137.814 231.436 132.759 231.436 127.119C231.436 121.532 232.759 116.531 235.406 112.061C238.053 107.592 241.652 104.08 246.257 101.579C250.863 99.0783 255.997 97.8013 261.661 97.8013C267.219 97.8013 272.195 99.0251 276.694 101.419C281.193 103.814 284.687 107.272 287.281 111.742C289.821 116.212 291.145 121.426 291.145 127.332C291.145 127.598 291.039 129.088 290.827 131.802ZM252.451 113.551C249.91 115.679 248.375 118.553 247.845 122.224H275.741C275.159 118.606 273.624 115.733 271.136 113.604C268.595 111.476 265.525 110.359 261.873 110.359C258.062 110.359 254.938 111.423 252.451 113.551Z" fill="#200F0E"/>
<path d="M342.557 152.875C340.969 154.099 338.958 154.95 336.629 155.588C334.3 156.174 331.812 156.493 329.218 156.493C322.496 156.493 317.255 154.79 313.603 151.332C309.898 147.873 308.098 142.818 308.098 136.114V112.755H299.364V100.092H308.045V86.2573H324.454V100.092H338.534V112.755H324.454V135.901C324.454 138.295 325.089 140.158 326.307 141.435C327.524 142.765 329.271 143.404 331.494 143.404C334.088 143.404 336.311 142.712 338.111 141.275L342.557 152.875Z" fill="#200F0E"/>
<path d="M391.886 152.875C390.298 154.099 388.286 154.95 385.957 155.588C383.628 156.174 381.14 156.493 378.546 156.493C371.824 156.493 366.584 154.79 362.931 151.332C359.226 147.873 357.426 142.818 357.426 136.114V112.755H348.692V100.092H357.426V86.2573H373.835V100.092H387.916V112.755H373.835V135.901C373.835 138.295 374.471 140.158 375.688 141.435C376.906 142.765 378.652 143.404 380.875 143.404C383.469 143.404 385.692 142.712 387.492 141.275L391.886 152.875Z" fill="#200F0E"/>
<path d="M456.467 131.802H413.644C414.438 135.313 416.237 138.134 419.096 140.155C421.954 142.177 425.554 143.242 429.841 143.242C432.806 143.242 435.399 142.816 437.675 141.911C439.952 141.007 442.069 139.623 444.027 137.708L452.761 147.232C447.415 153.351 439.634 156.437 429.418 156.437C423.013 156.437 417.402 155.214 412.479 152.66C407.556 150.159 403.798 146.7 401.099 142.231C398.452 137.814 397.076 132.759 397.076 127.119C397.076 121.532 398.399 116.531 401.046 112.061C403.692 107.592 407.292 104.08 411.897 101.579C416.502 99.0783 421.637 97.8013 427.3 97.8013C432.858 97.8013 437.834 99.0251 442.334 101.419C446.833 103.814 450.326 107.272 452.92 111.742C455.461 116.212 456.784 121.426 456.784 127.332C456.784 127.598 456.678 129.088 456.467 131.802ZM418.09 113.551C415.549 115.679 414.014 118.553 413.485 122.224H441.381C440.798 118.606 439.263 115.733 436.776 113.604C434.235 111.476 431.165 110.359 427.512 110.359C423.754 110.359 420.631 111.423 418.09 113.551Z" fill="#200F0E"/>
<path d="M490.439 101.049C493.774 99.6651 497.585 98.9202 501.979 98.9202V114.191C500.179 114.031 498.908 113.978 498.273 113.978C493.562 113.978 489.91 115.308 487.21 117.969C484.564 120.629 483.187 124.567 483.187 129.888V156.758H466.778V99.7715H482.446V107.274C484.458 104.56 487.104 102.485 490.439 101.049Z" fill="#200F0E"/>
<path d="M195.872 98.1228C190.42 98.1228 185.285 99.6658 180.892 102.326V67.1553H166.6V129.09H166.653C167.447 144.627 180.257 156.972 195.872 156.972C212.017 156.972 225.144 143.776 225.144 127.547C225.144 111.319 212.017 98.1228 195.872 98.1228ZM195.872 142.605C187.614 142.605 180.892 135.848 180.892 127.547C180.892 119.247 187.614 112.489 195.872 112.489C204.13 112.489 210.852 119.247 210.852 127.547C210.799 135.848 204.13 142.605 195.872 142.605Z" fill="#200F0E"/>
<circle cx="29.8633" cy="211.61" r="9.47727" fill="#10810E"/>
<circle cx="110.145" cy="145.779" r="9.47727" fill="#10810E"/>
</svg>
