<svg width="570" height="204" viewBox="0 0 570 204" fill="none" xmlns="http://www.w3.org/2000/svg">
<g clip-path="url(#clip0_308_720)">
<path d="M237.476 164.058L226.789 193.134H220.281L212.817 173.111L205.234 193.134H198.726L188.099 164.058H194.487L202.13 185.46L210.071 164.058H215.743L223.565 185.58L231.446 164.058H237.476Z" fill="#FF6921"/>
<path d="M247.189 191.577C244.861 190.318 243.01 188.52 241.696 186.301C240.383 184.023 239.726 181.446 239.726 178.628C239.726 175.75 240.383 173.233 241.696 170.954C243.01 168.676 244.861 166.938 247.189 165.679C249.518 164.42 252.145 163.761 255.07 163.761C258.056 163.761 260.683 164.42 263.012 165.679C265.34 166.938 267.191 168.736 268.505 170.954C269.818 173.233 270.475 175.75 270.475 178.628C270.475 181.506 269.818 184.083 268.505 186.301C267.191 188.52 265.34 190.318 263.012 191.577C260.683 192.836 257.996 193.495 255.07 193.495C252.205 193.495 249.577 192.836 247.189 191.577ZM261.28 185.162C262.892 183.484 263.728 181.326 263.728 178.568C263.728 175.87 262.892 173.652 261.28 171.974C259.668 170.295 257.578 169.456 255.13 169.456C252.622 169.456 250.592 170.295 248.98 171.974C247.368 173.652 246.592 175.81 246.592 178.568C246.592 181.266 247.368 183.484 248.98 185.162C250.592 186.841 252.622 187.68 255.13 187.68C257.638 187.68 259.668 186.841 261.28 185.162Z" fill="#FF6921"/>
<path d="M293.423 163.761V170.235C292.825 170.115 292.348 170.055 291.87 170.055C289.243 170.055 287.153 170.835 285.72 172.393C284.228 173.952 283.511 176.17 283.511 179.048V193.136H276.764V164.06H283.213V168.317C285.123 165.259 288.527 163.761 293.423 163.761Z" fill="#FF6921"/>
<path d="M312.095 180.663L307.079 185.459V193.132H300.333V152.786H307.079V177.126L321.111 164.057H329.231L317.17 176.226L330.365 193.072H322.126L312.095 180.663Z" fill="#FF6921"/>
<path d="M359.756 165.618C361.966 166.877 363.697 168.615 365.011 170.834C366.324 173.052 366.921 175.69 366.921 178.627C366.921 181.565 366.265 184.142 365.011 186.42C363.757 188.698 362.025 190.437 359.756 191.696C357.547 192.955 355.04 193.554 352.174 193.554C348.293 193.554 345.188 192.235 342.919 189.658V203.746H336.172V164.119H342.621V167.956C343.755 166.577 345.128 165.558 346.74 164.839C348.412 164.179 350.203 163.82 352.174 163.82C354.98 163.76 357.547 164.359 359.756 165.618ZM357.547 185.161C359.159 183.483 359.936 181.325 359.936 178.567C359.936 175.869 359.159 173.651 357.547 171.973C355.935 170.294 353.905 169.455 351.397 169.455C349.785 169.455 348.293 169.814 347.039 170.594C345.725 171.313 344.71 172.392 343.934 173.771C343.158 175.15 342.8 176.769 342.8 178.567C342.8 180.366 343.158 181.984 343.934 183.363C344.71 184.742 345.725 185.821 347.039 186.54C348.352 187.26 349.785 187.679 351.397 187.679C353.905 187.679 355.995 186.84 357.547 185.161Z" fill="#FF6921"/>
<path d="M373.456 152.728H380.203V193.074H373.456V152.728Z" fill="#FF6921"/>
<path d="M410.685 166.819C412.954 168.857 414.088 171.974 414.088 176.111V193.137H407.7V189.6C406.864 190.858 405.67 191.818 404.177 192.537C402.625 193.197 400.774 193.556 398.624 193.556C396.475 193.556 394.564 193.197 392.952 192.417C391.34 191.638 390.086 190.619 389.191 189.3C388.295 187.981 387.877 186.482 387.877 184.804C387.877 182.166 388.832 180.128 390.803 178.509C392.713 176.95 395.758 176.171 399.938 176.171H407.282V175.751C407.282 173.713 406.685 172.154 405.491 171.075C404.296 169.996 402.505 169.457 400.117 169.457C398.505 169.457 396.893 169.696 395.34 170.236C393.788 170.716 392.415 171.435 391.34 172.334L388.713 167.358C390.206 166.219 392.056 165.32 394.206 164.721C396.355 164.121 398.565 163.821 400.953 163.821C405.132 163.761 408.416 164.781 410.685 166.819ZM404.475 187.381C405.789 186.602 406.744 185.463 407.282 184.024V180.667H400.296C396.415 180.667 394.445 181.926 394.445 184.504C394.445 185.763 394.922 186.722 395.937 187.441C396.893 188.161 398.266 188.52 399.997 188.52C401.669 188.52 403.162 188.161 404.475 187.381Z" fill="#FF6921"/>
<path d="M428.206 191.577C425.818 190.318 423.967 188.52 422.653 186.301C421.34 184.023 420.623 181.446 420.623 178.628C420.623 175.75 421.28 173.233 422.653 170.954C423.967 168.676 425.818 166.938 428.206 165.679C430.594 164.42 433.281 163.761 436.326 163.761C439.192 163.761 441.7 164.36 443.849 165.499C445.999 166.638 447.611 168.317 448.685 170.475L443.491 173.532C442.655 172.213 441.64 171.194 440.386 170.535C439.132 169.875 437.759 169.516 436.266 169.516C433.759 169.516 431.669 170.355 429.997 171.974C428.325 173.652 427.489 175.81 427.489 178.568C427.489 181.326 428.325 183.544 429.937 185.162C431.609 186.841 433.699 187.62 436.266 187.62C437.759 187.62 439.132 187.261 440.386 186.601C441.64 185.942 442.655 184.923 443.491 183.604L448.685 186.661C447.551 188.819 445.939 190.498 443.789 191.697C441.64 192.896 439.132 193.495 436.326 193.495C433.281 193.495 430.594 192.836 428.206 191.577Z" fill="#FF6921"/>
<path d="M482.9 180.785H460.211C460.629 182.943 461.644 184.621 463.316 185.88C464.987 187.139 467.077 187.739 469.585 187.739C472.749 187.739 475.376 186.66 477.466 184.561L481.108 188.758C479.795 190.316 478.183 191.515 476.153 192.295C474.182 193.074 471.913 193.494 469.406 193.494C466.241 193.494 463.435 192.834 460.987 191.575C458.539 190.316 456.688 188.518 455.375 186.3C454.061 184.022 453.404 181.444 453.404 178.626C453.404 175.809 454.061 173.231 455.315 171.013C456.569 168.735 458.36 166.996 460.629 165.737C462.898 164.478 465.465 163.819 468.331 163.819C471.137 163.819 473.645 164.418 475.914 165.677C478.123 166.936 479.854 168.675 481.108 170.953C482.362 173.231 482.959 175.869 482.959 178.806C483.019 179.226 482.959 179.885 482.9 180.785ZM462.898 171.133C461.405 172.392 460.509 174.13 460.151 176.288H476.571C476.272 174.19 475.376 172.452 473.943 171.193C472.451 169.874 470.6 169.214 468.391 169.214C466.241 169.154 464.39 169.814 462.898 171.133Z" fill="#FF6921"/>
<path d="M328.044 103.149H279.741C280.636 107.106 282.666 110.283 285.89 112.561C289.115 114.839 293.175 116.038 298.011 116.038C301.354 116.038 304.28 115.559 306.848 114.54C309.415 113.52 311.803 111.962 314.012 109.804L323.864 120.534C317.834 127.429 309.057 130.906 297.533 130.906C290.309 130.906 283.98 129.527 278.427 126.649C272.874 123.832 268.635 119.935 265.59 114.899C262.605 109.923 261.052 104.228 261.052 97.8736C261.052 91.5789 262.545 85.9437 265.53 80.908C268.516 75.8723 272.576 71.9156 277.77 69.098C282.965 66.2804 288.756 64.8416 295.145 64.8416C301.414 64.8416 307.027 66.2204 312.102 68.9181C317.177 71.6159 321.118 75.5126 324.043 80.5483C326.909 85.584 328.402 91.4591 328.402 98.1134C328.402 98.4132 328.282 100.092 328.044 103.149ZM284.756 82.5866C281.89 84.9845 280.159 88.2218 279.561 92.3583H311.027C310.37 88.2817 308.639 85.0445 305.833 82.6465C302.967 80.2485 299.504 78.9896 295.384 78.9896C291.085 78.9896 287.562 80.1886 284.756 82.5866Z" fill="#1F0B09"/>
<path d="M386.393 126.892C384.602 128.271 382.333 129.23 379.706 129.949C377.079 130.609 374.273 130.968 371.347 130.968C363.765 130.968 357.854 129.05 353.734 125.153C349.554 121.257 347.524 115.561 347.524 108.008V81.6901H337.673V67.4222H347.465V51.8354H365.974V67.4222H381.856V81.6901H365.974V107.768C365.974 110.466 366.69 112.564 368.063 114.003C369.437 115.501 371.407 116.221 373.915 116.221C376.84 116.221 379.348 115.441 381.378 113.823L386.393 126.892Z" fill="#1F0B09"/>
<path d="M442.034 126.892C440.243 128.271 437.974 129.23 435.347 129.949C432.72 130.609 429.914 130.968 426.988 130.968C419.405 130.968 413.494 129.05 409.374 125.153C405.195 121.257 403.165 115.561 403.165 108.008V81.6901H393.313V67.4222H403.165V51.8354H421.674V67.4222H437.556V81.6901H421.674V107.768C421.674 110.466 422.391 112.564 423.764 114.003C425.137 115.501 427.107 116.221 429.615 116.221C432.541 116.221 435.048 115.441 437.078 113.823L442.034 126.892Z" fill="#1F0B09"/>
<path d="M514.879 103.149H466.577C467.472 107.106 469.502 110.283 472.726 112.561C475.951 114.839 480.011 116.038 484.847 116.038C488.19 116.038 491.116 115.559 493.684 114.54C496.251 113.52 498.639 111.962 500.848 109.804L510.7 120.534C504.67 127.429 495.893 130.906 484.369 130.906C477.145 130.906 470.816 129.527 465.263 126.649C459.71 123.832 455.471 119.935 452.426 114.899C449.441 109.923 447.888 104.228 447.888 97.8736C447.888 91.5789 449.381 85.9437 452.366 80.908C455.352 75.8723 459.412 71.9156 464.606 69.098C469.801 66.2804 475.592 64.8416 481.981 64.8416C488.25 64.8416 493.863 66.2204 498.938 68.9181C504.013 71.6159 507.954 75.5126 510.879 80.5483C513.745 85.584 515.238 91.4591 515.238 98.1134C515.238 98.4132 515.118 100.092 514.879 103.149ZM471.592 82.5866C468.726 84.9845 466.994 88.2218 466.397 92.3583H497.863C497.206 88.2818 495.475 85.0445 492.669 82.6465C489.803 80.2485 486.34 78.9896 482.22 78.9896C477.981 78.9896 474.458 80.1886 471.592 82.5866Z" fill="#1F0B09"/>
<path d="M553.199 68.5002C556.961 66.9415 561.26 66.1022 566.215 66.1022V83.3077C564.185 83.1278 562.752 83.0679 562.036 83.0679C556.722 83.0679 552.602 84.5666 549.557 87.5641C546.572 90.5615 545.019 94.9978 545.019 100.993V131.267H526.51V67.0614H544.184V75.5143C546.452 72.4569 549.438 70.1188 553.199 68.5002Z" fill="#1F0B09"/>
<path d="M220.937 65.2039C214.787 65.2039 208.996 66.9424 204.04 69.9399V30.3134H187.919V100.094H187.979C188.875 117.6 203.324 131.508 220.937 131.508C239.148 131.508 253.955 116.64 253.955 98.3558C253.955 80.0713 239.148 65.2039 220.937 65.2039ZM220.937 115.321C211.623 115.321 204.04 107.708 204.04 98.3558C204.04 89.0037 211.623 81.3902 220.937 81.3902C230.252 81.3902 237.834 89.0037 237.834 98.3558C237.775 107.708 230.252 115.321 220.937 115.321Z" fill="#1F0B09"/>
<path d="M140.213 86.9049C125.943 82.2888 111.673 77.6727 97.4631 73.0566C90.2983 70.7186 83.1334 67.841 76.5059 73.5362C70.1173 79.0515 71.2517 87.6243 71.2517 95.2378C71.2517 104.47 71.2517 113.642 71.2517 122.874C71.2517 124.913 71.1323 127.011 71.2517 129.109C71.6697 135.883 76.3268 142.178 83.1931 143.437C85.5814 143.857 88.0294 143.677 90.4177 143.677C94.7763 143.677 99.0752 143.677 103.434 143.677C111.315 143.677 119.256 143.617 127.137 143.677C131.616 143.677 135.317 146.434 136.034 151.111C136.452 154.048 136.094 157.225 136.094 160.163C136.094 164.779 136.094 169.335 136.094 173.951C136.094 177.728 136.213 181.565 132.989 184.322C129.765 187.08 124.689 186.181 120.749 186.181C116.51 186.181 111.912 186.84 108.927 183.063C106.598 180.066 107.016 176.109 107.016 172.512C107.016 158.844 107.016 145.176 107.016 131.507C107.016 111.904 107.016 92.3003 107.016 72.6969C107.016 56.9902 107.016 41.2236 107.016 25.5169C107.016 22.2796 107.016 19.0424 107.016 15.8051C106.957 5.73363 97.5228 -3.01896 87.3726 0.997634C82.5363 2.91601 78.118 6.69281 73.8191 9.51043C65.8184 14.786 57.8176 20.0615 49.8169 25.337C44.0253 29.1738 38.2337 32.9506 32.4422 36.7873C27.0088 40.3843 24.3817 45.48 24.3817 52.0144C24.3817 65.0834 24.3817 78.2122 24.3817 91.2812C24.3817 110.585 24.3817 129.829 24.3817 149.132C24.3817 156.026 24.3817 162.98 24.3817 169.875C24.3817 173.352 24.0235 177.069 24.6803 180.486C25.9341 187.2 31.7257 192.535 38.592 192.715C45.2195 192.895 51.011 188.219 52.9217 181.924C54.3546 177.128 53.5784 171.193 53.5784 166.278C53.5784 148.233 53.5784 130.248 53.5784 112.203C53.5784 106.209 54.2949 99.9139 50.414 94.8182C46.2942 89.3628 39.1293 87.4444 32.9795 90.322C30.4121 91.461 27.9641 92.8998 25.5161 94.2187C21.3367 96.4368 17.0975 98.595 12.918 100.813C10.052 102.312 6.88756 103.631 4.55898 105.969C-0.57582 111.124 0.0212561 117.959 0.0212561 124.553C0.0212561 142.598 0.0212561 160.642 0.0212561 178.687C0.0212561 182.884 0.0212561 187.08 0.0212561 191.336C0.0212561 195.533 6.52932 195.533 6.52932 191.336C6.52932 177.968 6.52932 164.599 6.52932 151.23C6.52932 142.658 6.52932 134.025 6.52932 125.452C6.52932 120.416 5.39488 113.342 9.93261 109.925C12.1418 108.247 15.0077 107.168 17.4557 105.909C21.6352 103.751 25.755 101.592 29.9345 99.4343C32.2033 98.2353 34.6513 96.4968 37.2187 95.8373C42.6521 94.3985 47.0107 99.3144 47.1301 104.47C47.4286 118.318 47.1301 132.226 47.1301 146.135C47.1301 154.408 47.1301 162.681 47.1301 170.954C47.1301 176.469 47.966 183.783 41.2788 185.941C35.726 187.739 31.0689 182.764 30.9495 177.428C30.9495 176.589 30.9495 175.81 30.9495 174.97C30.9495 169.755 30.9495 164.539 30.9495 159.383C30.9495 141.399 30.9495 123.414 30.9495 105.429C30.9495 89.6625 30.9495 73.8959 30.9495 58.0693C30.9495 55.0718 30.5315 51.7147 31.1883 48.7772C32.3825 43.3218 39.2488 40.3243 43.488 37.5067C57.4594 28.2745 71.4308 19.0424 85.4023 9.81017C86.7755 8.91093 88.2085 7.7719 89.7609 7.17241C95.1942 5.07418 100.269 9.81017 100.508 15.1457C100.628 17.4237 100.508 19.7018 100.508 21.9199C100.508 35.8281 100.508 49.6764 100.508 63.5846C100.508 82.7084 100.508 101.832 100.508 120.896C100.508 136.183 100.508 151.41 100.508 166.697C100.508 170.054 100.508 173.412 100.508 176.769C100.568 185.761 106.837 192.715 115.913 192.775C119.794 192.775 123.734 192.835 127.615 192.775C133.466 192.655 138.661 189.478 141.109 184.083C142.721 180.546 142.602 176.949 142.602 173.172C142.602 168.616 142.602 164 142.602 159.443C142.602 156.386 142.84 153.149 142.422 150.151C141.467 143.677 136.452 138.221 129.884 137.322C127.675 137.022 125.466 137.142 123.257 137.142C119.077 137.142 114.898 137.142 110.718 137.142C102.837 137.142 94.9554 137.142 87.0741 137.142C83.2528 137.142 79.9092 135.644 78.4166 131.807C77.521 129.529 77.7598 126.831 77.7598 124.433C77.7598 115.74 77.7598 107.048 77.7598 98.3552C77.7598 94.7582 77.7598 91.1613 77.7598 87.5643C77.7598 84.3271 77.9389 81.2697 80.3869 78.8117C84.9843 74.1956 92.388 78.2122 97.5228 79.8908C106.3 82.7684 115.136 85.586 123.913 88.4636C128.75 90.0222 133.646 91.5809 138.482 93.1995C142.482 94.5184 144.154 88.2238 140.213 86.9049Z" fill="#FF6921"/>
</g>
<defs>
<clipPath id="clip0_308_720">
<rect width="569.732" height="203.745" fill="white"/>
</clipPath>
</defs>
</svg>
