<svg width="553" height="316" viewBox="0 0 553 316" fill="none" xmlns="http://www.w3.org/2000/svg">
<path d="M413.177 67.2838L459.494 69.4635C458.677 94.8017 452.138 119.323 452.138 144.661C452.138 154.197 452.41 168.092 465.216 168.092C493.551 168.092 505.811 117.415 505.811 95.6191C505.811 83.6311 504.994 71.9156 503.632 59.9276L549.677 53.9336C552.401 79.5443 552.401 105.427 552.401 131.038C552.401 180.352 552.129 241.655 507.174 272.987C499.818 278.163 487.285 283.068 478.021 283.068C461.674 283.068 445.599 277.619 429.524 274.349L437.698 228.849C450.776 231.301 463.854 236.206 477.476 236.206C479.111 236.206 482.653 234.026 483.743 232.936C492.734 226.125 497.093 215.227 499.818 204.873C489.464 210.867 477.476 214.409 465.488 214.409C422.44 214.409 405.821 181.17 405.821 142.481C405.821 117.143 412.905 92.6221 413.177 67.2838Z" fill="#347550"/>
<path d="M363.83 11.4302L409.603 17.4242C404.154 61.5618 398.704 105.699 398.704 150.109C398.704 174.358 400.067 198.334 402.246 222.582L355.929 226.669C353.749 201.058 352.387 175.72 352.387 150.109C352.387 103.52 357.836 57.4749 363.83 11.4302Z" fill="#347550"/>
<path d="M300.362 67.8262L346.679 67.8262L346.951 85.2633C346.951 96.4339 346.679 107.604 346.134 118.775C345.862 125.586 345.044 132.125 345.044 138.664C345.044 143.841 345.589 148.745 345.589 153.649C345.589 159.916 344.772 166.182 344.227 172.449C343.409 185.254 343.137 198.059 342.865 210.592H296.547C296.82 197.242 296.82 183.619 297.91 169.997C298.455 164.547 299.272 159.371 299.272 153.922C299.272 148.745 298.727 143.568 298.727 138.392C298.727 120.682 300.634 102.973 300.634 85.2633L300.362 67.8262Z" fill="#347550"/>
<path d="M184.484 98.8868L170.589 54.7492C189.116 49.0277 208.188 44.1235 227.804 44.1235C276.574 44.1235 294.011 82.2671 294.011 125.315C294.011 139.482 293.193 153.65 291.286 167.818C290.196 174.629 288.562 181.713 288.562 188.797C288.562 198.333 289.379 208.141 289.924 217.677L243.879 219.856L243.062 209.776C232.436 210.593 221.538 210.865 210.64 210.865C180.942 210.865 155.332 199.15 155.332 165.638C155.332 132.944 188.026 105.698 219.903 105.698C228.894 105.698 237.613 107.333 246.604 109.24C244.969 97.2521 240.61 90.4407 227.532 90.4407C212.819 90.4407 198.379 94.5276 184.484 98.8868ZM202.466 164.276C204.373 164.548 206.553 164.548 208.46 164.548C220.721 164.548 232.981 164.003 245.241 162.914L246.059 156.375C237.613 154.467 229.167 152.015 220.721 152.015C212.819 152.015 205.736 157.192 202.466 164.276Z" fill="#347550"/>
<path d="M109.527 5.979L155.844 10.0658C152.574 50.9339 147.943 92.0745 147.943 133.215C147.943 136.485 148.215 139.482 148.488 142.479L158.296 215.769L112.251 221.763L107.892 187.978C91.2722 204.053 69.7483 216.041 46.3172 216.041C13.3503 216.041 0 189.068 0 159.643C0 113.871 26.1556 50.6615 79.8291 50.6615C88.8201 50.6615 97.5386 52.5687 105.44 56.383C106.802 39.4909 108.437 22.8712 109.527 5.979ZM47.407 169.724C69.2034 168.089 88.8201 141.661 100.263 124.769C97.5386 116.05 91.5446 96.9787 80.1015 96.9787C56.398 96.9787 46.3172 141.661 46.3172 160.188C46.3172 163.185 46.5897 166.455 47.407 169.724Z" fill="#347550"/>
<path d="M421.551 252.925L416.465 269.079C409.784 266.985 403.004 264.891 396.024 264.891C394.13 264.891 392.534 265.19 391.238 266.586C393.033 272.768 419.157 274.463 419.157 294.705C419.157 305.075 407.99 310.858 398.716 310.858C392.534 310.858 386.452 309.861 380.369 308.864L382.663 292.012C387.848 292.91 393.132 293.907 398.517 293.907C399.614 293.907 400.711 293.708 401.708 293.309C397.52 286.528 380.768 287.426 375.284 272.469C374.586 270.574 374.187 268.58 374.187 266.586C374.187 254.919 385.355 247.939 396.024 247.939C404.799 247.939 413.274 250.333 421.551 252.925Z" fill="#347550"/>
<path d="M341.314 239.762H358.265C358.265 244.349 358.065 248.836 357.766 253.422C362.552 253.024 367.339 252.425 372.125 251.927L374.318 268.678C368.535 269.376 362.752 270.074 356.968 270.473C356.769 277.054 356.769 283.735 356.769 290.316C356.769 296.498 359.262 297.396 365.045 298.493L361.356 315.045C351.285 312.951 342.709 308.065 340.516 297.196C339.818 294.005 339.818 290.715 339.818 287.424C339.818 281.94 339.818 276.456 340.017 270.972L332.339 270.872V253.921C335.231 253.921 338.023 254.021 340.815 254.021C341.014 249.334 341.314 244.548 341.314 239.762Z" fill="#347550"/>
<path d="M314.349 239.763C314.349 234.378 318.138 230.589 323.523 230.589C328.907 230.589 332.597 234.378 332.597 239.763C332.597 245.147 328.907 248.837 323.523 248.837C318.138 248.837 314.349 245.147 314.349 239.763ZM314.748 254.321H331.699L331.799 260.703C331.799 264.791 331.699 268.879 331.5 272.967C331.4 275.46 331.101 277.853 331.101 280.246C331.101 282.141 331.3 283.936 331.3 285.731C331.3 288.024 331.001 290.317 330.802 292.611C330.503 297.297 330.403 301.984 330.303 306.57H313.352C313.452 301.685 313.452 296.699 313.851 291.713C314.05 289.719 314.349 287.824 314.349 285.83C314.349 283.936 314.15 282.041 314.15 280.147C314.15 273.665 314.848 267.184 314.848 260.703L314.748 254.321Z" fill="#347550"/>
<path d="M259.061 252.127H276.012V254.819C276.012 259.606 276.012 264.392 275.813 269.078C275.613 271.97 275.414 274.762 275.414 277.654C275.414 282.539 276.012 287.625 278.007 292.212C286.482 290.417 290.57 258.808 291.667 251.03C297.251 252.027 302.935 252.526 308.618 252.526C308.22 262.398 306.824 272.169 306.824 282.041C306.824 292.91 308.818 295.901 313.006 305.473L297.351 311.955C295.955 308.664 294.459 305.374 293.063 302.083C289.174 306.371 283.89 309.163 278.007 309.163C274.317 309.163 270.728 308.265 267.736 306.171C260.657 300.986 258.463 285.83 258.463 277.654C258.463 270.075 259.061 262.497 259.061 254.819V252.127Z" fill="#347550"/>
<path d="M217.399 252.329L234.25 250.833L234.649 254.822C238.139 252.927 242.128 252.13 246.116 252.13C251.002 252.13 255.788 253.526 260.375 255.221L254.592 271.175C251.9 270.178 249.207 268.981 246.316 268.981C239.136 268.981 236.344 278.753 236.344 284.636C236.344 292.912 236.344 301.288 236.444 309.564H219.493L219.393 283.838H219.293C219.493 282.343 219.593 280.747 219.593 279.252C219.593 270.178 218.296 261.303 217.399 252.329Z" fill="#347550"/>
<path d="M208.087 277.355L194.227 267.682C197.219 263.495 199.911 258.609 199.911 253.324C199.911 251.629 198.016 251.429 196.72 251.429C189.74 251.429 188.643 268.779 188.444 273.765C192.333 273.865 196.221 274.064 200.01 274.064V291.015C196.521 291.015 193.031 290.916 189.541 290.716C190.239 296.998 191.335 303.08 192.333 309.263L175.581 312.254C174.484 304.875 173.188 297.596 172.39 290.118C170.097 290.118 167.704 290.018 165.41 290.018V273.067L171.493 273.167C171.891 257.412 176.877 234.378 196.72 234.378C207.788 234.378 216.862 242.056 216.862 253.424C216.862 262.198 213.073 270.375 208.087 277.355Z" fill="#347550"/>
<path d="M326.768 12.6231C328.521 10.9949 330.858 10.0708 333.244 9.61929C335.63 9.16783 338.087 9.15732 340.527 9.14827C339.007 11.4755 337.446 13.8067 335.43 15.7325C333.415 17.6584 330.888 19.1718 328.077 19.5353C327.156 19.6543 326.22 19.6492 325.292 19.7179C322.645 19.9149 322.679 19.4853 323.763 17.1023C324.513 15.4551 325.425 13.8695 326.768 12.6228L326.768 12.6231Z" fill="#347550"/>
<path d="M317.574 10.4162C317.574 10.4162 324.685 17.6459 322.784 27.8056C324.957 28.7501 324.181 28.1018 324.181 28.1018L324.034 20.1284C323.984 17.425 323.259 14.7592 321.924 12.3648L319.132 7.3584L317.574 10.4162Z" fill="#347550"/>
<path d="M309.822 19.9404C314.636 20.0063 319.968 22.0746 324.131 22.5068C330.045 23.1212 336.319 21.2918 342.087 23.4941C352.316 27.4007 351.016 48.3182 348.938 56.5381C347.175 63.5083 341.62 66.5646 334.429 67.6836C329.767 68.4089 327.551 66.3131 324.135 62.7529C320.953 67.6298 311.116 67.3076 306.018 64.709C298.432 60.8413 298.317 49.4022 299.011 40.832C299.727 31.993 298.188 20.1577 309.283 19.9414L309.822 19.9404Z" fill="#347550"/>
</svg>
