<svg width="495" height="178" viewBox="0 0 495 178" fill="none" xmlns="http://www.w3.org/2000/svg">
<g clip-path="url(#clip0_1_5)">
<path d="M251.46 30.58C245.19 30.58 240.45 34.43 240 39.89H262.74C262.38 34.43 257.9 30.58 251.46 30.58ZM306.59 31.92C298.89 31.92 293.52 37.2 293.52 44.72C293.52 52.24 298.89 57.7 306.59 57.7C314.02 57.7 319.48 52.24 319.48 44.72C319.48 37.29 314.02 31.92 306.59 31.92ZM397.39 20.37C408.04 20.37 415.21 27.26 415.21 38.72V68.18H402.5V42.04C402.5 34.25 398.74 31.3 393.99 31.3C389.07 31.3 385.04 34.52 385.04 42.04V68.18H372.33V42.04C372.33 34.25 368.48 31.3 363.82 31.3C358.9 31.3 354.78 34.52 354.78 42.04V68.18H342.07V21.36H352.46L354.61 27.63C357.3 23.33 361.68 20.38 368.22 20.38C374.13 20.38 379.14 22.98 382.1 27.63C385.23 23.33 390.16 20.38 397.41 20.38L397.39 20.37ZM231.81 16.34H215.16V68.18H202.18V16.34H185.53V4.62H231.82V16.35L231.81 16.34ZM303.9 20.37C309.9 20.37 315.99 23.06 319.48 28.25V28.52L321.63 21.36H332.37V68.19H319.48V60.13C317.24 65.68 311.06 69.08 303.27 69.08C289.03 69.08 280.62 57.98 280.62 44.64C280.62 30.76 289.48 20.38 303.9 20.38V20.37ZM251.46 20.37C265.7 20.37 276.17 29.95 275.63 48.75H240.09C240.72 54.48 245.82 58.6 252.36 58.6C257.82 58.6 261.76 56 263.64 52.33L274.74 53.49C272.23 62.35 263.19 69.07 252.27 69.07C237.77 69.07 227.29 59.4 227.29 44.9C227.29 30.84 237.32 20.37 251.46 20.37ZM78.63 0C90.06 0 100.92 2.41 110.74 6.75C117.97 9.95 119.64 19.48 114.05 25.08L70.39 68.72C67.56 71.55 62.73 69.54 62.73 65.54V11.49C62.73 5.51 67.38 0.57 73.35 0.18C75.1 0.07 76.86 0.01 78.64 0.01L78.63 0ZM39.49 10.27C47 6.02 56.32 11.55 56.32 20.19V66.97C56.32 72.17 52.11 76.37 46.92 76.37H8.57C3.28 76.37 -0.74 71.62 0.13 66.4C4.14 42.31 18.98 21.87 39.49 10.27ZM122.11 25.77C126.48 21.4 133.44 21.57 137.59 26.15C147.62 37.21 154.58 51.12 157.13 66.51C157.99 71.69 153.92 76.38 148.68 76.38H78.1C75.74 76.38 74.56 73.53 76.22 71.85L122.11 25.77ZM205.44 117.73H216.99C221.91 117.73 225.23 115.31 225.23 110.39C225.23 105.56 221.92 103.05 216.99 103.05H205.44V117.73ZM437.77 117.91C431.5 117.91 426.76 121.76 426.31 127.22H449.05C448.69 121.76 444.21 117.91 437.77 117.91ZM79.17 82.79C81.53 82.79 82.71 85.64 81.05 87.32L35.15 133.41C30.78 137.78 23.82 137.61 19.67 133.03C9.63 121.96 2.66 108.06 0.12 92.66C-0.74 87.48 3.33 82.79 8.57 82.79H79.17ZM205.44 144.41H218.6C224.87 144.41 228.81 141.19 228.81 136.17C228.81 130.89 224.87 127.58 218.78 127.58H205.44V144.41ZM382.33 119.25C374.63 119.25 369.26 124.53 369.26 132.05C369.26 139.57 374.63 145.03 382.33 145.03C389.76 145.03 395.22 139.57 395.22 132.05C395.22 124.62 389.76 119.25 382.33 119.25ZM325.1 119.25C317.4 119.25 312.03 124.53 312.03 132.05C312.03 139.57 317.4 145.03 325.1 145.03C332.53 145.03 337.99 139.57 337.99 132.05C337.99 124.62 332.53 119.25 325.1 119.25ZM148.67 82.79C153.96 82.79 157.98 87.54 157.11 92.76C153.1 116.85 138.26 137.29 117.75 148.89C110.24 153.14 100.92 147.61 100.92 138.97V92.19C100.92 86.99 105.13 82.79 110.32 82.79H148.66H148.67ZM483.71 108.69H494.54V118.72H483.71V155.52H471V118.72H463.39V108.69H471V94.99H483.71V108.69ZM216.99 91.94C230.51 91.94 238.3 97.49 238.3 107.79C238.3 115.58 234.27 119.61 229.97 121.04C236.95 122.29 241.88 128.56 241.88 136.44C241.88 147.36 233.91 155.51 218.6 155.51H192.46V91.94H216.99ZM437.77 107.7C452.01 107.7 462.48 117.28 461.94 136.08H426.4C427.03 141.81 432.13 145.93 438.67 145.93C444.13 145.93 448.07 143.33 449.95 139.66L461.05 140.82C458.54 149.68 449.5 156.4 438.58 156.4C424.08 156.4 413.6 146.73 413.6 132.23C413.6 117.73 423.63 107.7 437.77 107.7ZM350.71 155.51H338V147.45C335.76 153 329.58 156.4 321.79 156.4C307.55 156.4 299.14 145.3 299.14 131.96C299.14 118.62 308 107.7 322.42 107.7C328.42 107.7 334.51 110.39 338 115.58V88.36H350.71V155.51ZM260.18 134.02C260.18 143.06 265.28 145.57 270.21 145.57C276.3 145.57 280.69 141.72 280.69 133.66V108.68H293.49V155.51H282.75L280.96 148.62C278.09 153.54 273.17 156.5 266.28 156.5C256.52 156.5 247.48 150.32 247.48 136V108.69H260.19V134.03L260.18 134.02ZM86.86 90.44C89.69 87.61 94.52 89.62 94.52 93.61V147.67C94.52 153.65 89.87 158.59 83.9 158.98C82.15 159.09 80.39 159.15 78.61 159.15C67.19 159.15 56.33 156.74 46.51 152.41C39.28 149.22 37.61 139.68 43.2 134.08L86.85 90.43L86.86 90.44ZM379.64 107.7C385.64 107.7 391.73 110.39 395.22 115.58V115.85L397.55 108.69H407.94V150.68C407.94 166.97 399.26 177.54 382.51 177.54C375.26 177.54 366.39 175.39 361.92 171.99V161.07C365.77 163.22 371.86 166.53 379.92 166.53C389.86 166.53 395.23 161.7 395.23 150.68V147.46C392.99 153.01 386.81 156.41 379.02 156.41C364.78 156.41 356.37 145.31 356.37 131.97C356.37 118.63 365.23 107.71 379.65 107.71L379.64 107.7Z" fill="#473A39"/>
</g>
<defs>
<clipPath id="clip0_1_5">
<rect width="494.54" height="177.54" fill="white"/>
</clipPath>
</defs>
</svg>
