<svg xmlns="http://www.w3.org/2000/svg" viewBox="-4.7 -4.7 167.9 166.7"><path d="M78.63 0C90.06 0 100.92 2.41 110.74 6.75C117.97 9.95 119.64 19.48 114.05 25.08L70.39 68.72C67.56 71.55 62.73 69.54 62.73 65.54V11.49C62.73 5.51 67.38 0.57 73.35 0.18C75.1 0.07 76.86 0.01 78.64 0.01L78.63 0ZM39.49 10.27C47 6.02 56.32 11.55 56.32 20.19V66.97C56.32 72.17 52.11 76.37 46.92 76.37H8.57C3.28 76.37 -0.74 71.62 0.13 66.4C4.14 42.31 18.98 21.87 39.49 10.27ZM122.11 25.77C126.48 21.4 133.44 21.57 137.59 26.15C147.62 37.21 154.58 51.12 157.13 66.51C157.99 71.69 153.92 76.38 148.68 76.38H78.1C75.74 76.38 74.56 73.53 76.22 71.85L122.11 25.77ZM79.17 82.79C81.53 82.79 82.71 85.64 81.05 87.32L35.15 133.41C30.78 137.78 23.82 137.61 19.67 133.03C9.63 121.96 2.66 108.06 0.12 92.66C-0.74 87.48 3.33 82.79 8.57 82.79H79.17ZM148.67 82.79C153.96 82.79 157.98 87.54 157.11 92.76C153.1 116.85 138.26 137.29 117.75 148.89C110.24 153.14 100.92 147.61 100.92 138.97V92.19C100.92 86.99 105.13 82.79 110.32 82.79H148.66H148.67ZM86.86 90.44C89.69 87.61 94.52 89.62 94.52 93.61V147.67C94.52 153.65 89.87 158.59 83.9 158.98C82.15 159.09 80.39 159.15 78.61 159.15C67.19 159.15 56.33 156.74 46.51 152.41C39.28 149.22 37.61 139.68 43.2 134.08L86.85 90.43L86.86 90.44Z" fill="#473A39"/></svg>